<svg height="512" viewBox="0 0 60 60" width="512" xmlns="http://www.w3.org/2000/svg"><g id="Page-1" fill="none" fill-rule="evenodd"><g id="056---Phone-Call-Question" fill="rgb(0,0,0)" fill-rule="nonzero" transform="translate(0 -1)"><path id="Shape" d="m17.368 25.037-7.152-7.151c-1.18144773-1.1782393-3.09355227-1.1782393-4.275 0l-1.429 1.428-1.767 1.767c-.372157.3722148-.64067976.8351494-.779 1.343l-1.86 6.818c-.14642054.5417444-.14053805 1.1133835.017 1.652 2.2950536 6.9920959 6.25542469 13.3214827 11.54 18.443 5.1218009 5.2847118 11.4515455 9.245092 18.444 11.54.5378674.157993 1.1089915.1638773 1.65.017l6.82-1.86c.5074387-.1386086.9699798-.407103 1.342-.779l1.764-1.765 1.428-1.429c1.1787894-1.1812203 1.1787894-3.0937797 0-4.275l-7.151-7.152c-1.1807643-1.1798913-3.0942357-1.1798913-4.275 0l-1.423 1.426-3.9 3.909c-3.4258693-.9296377-6.5326963-2.7774823-8.985-5.344-2.5674336-2.44976-4.4137457-5.5568078-5.338-8.983l5.338-5.336c1.1717702-1.1832259 1.1677487-3.0907253-.009-4.269zm-1.414 2.863-.723.724-.724-.724c-.3907415-.3904653-1.0240347-.3902414-1.4145.0005-.3904653.3907415-.3902414 1.0240347.0005 1.4145l.723.723-3.2 3.2c-.4898741.4908635-.69275019 1.1992297-.537 1.875 1.0175354 3.7849713 3.0488651 7.2204251 5.875 9.936 2.7155749 2.8261349 6.1510287 4.8574646 9.936 5.875.6757908.1565391 1.3845368-.0464457 1.875-.537l3.2-3.2.724.723c.2516376.2593683.6236346.3627931.9730351.2705289.3494005-.0922643.6218394-.3658616.7126202-.7156505s-.0142215-.7213437-.2746553-.9718784l-.724-.724.724-.723c.3997644-.3991277 1.0472356-.3991277 1.447 0l7.153 7.154c.3991277.3997644.3991277 1.0472356 0 1.447l-.723.723-5.014-5.014c-.3923789-.3789722-1.0160848-.3735524-1.4018186.0121814s-.3911536 1.0094397-.0121814 1.4018186l5.014 5.014-1.058 1.059c-.1257254.1258665-.2822684.2165511-.454.263l-6.821 1.86c-.1847143.0496857-.3795781.0472628-.563-.007-6.6713825-2.1971029-12.7082371-5.9839508-17.59-11.034-5.04999769-4.8821988-8.8368236-10.9193617-11.034-17.591-.05474477-.1840307-.05716861-.3796695-.007-.565l1.864-6.819c.04620084-.1721259.13690811-.3290529.263-.455l1.059-1.058 5.014 5.014c.3923789.3789722 1.0160848.3735524 1.4018186-.0121814s.3911536-1.0094397.0121814-1.4018186l-5.018-5.014.723-.723c.39999179-.3985778 1.04700821-.3985778 1.447 0l7.152 7.151c.1922959.1920715.3003456.4527111.3003456.7245s-.1080497.5324285-.3003456.7245z"/><path id="Shape" d="m22.194 38.013c.3058478.5994104.9433103.9548728 1.614.9 2.965787-.2321083 5.8844606-.8783836 8.671-1.92 2.649951 1.322377 5.571427 2.0095213 8.533 2.007.3 0 .608-.007.912-.021 9.876-.474 18.323-9.572 18.076-19.471-.1388031-5.3105858-2.4936509-10.32075983-6.4938977-13.81641622-4.0002468-3.4956564-9.280825-5.15777716-14.5621023-4.58358378-8.303.874-16.019 8.638-16.844 16.955-.4375854 4.2007402.5484762 8.4267186 2.8 12-.2425959 2.2344648-1.1089332 4.3556051-2.5 6.121-.4333907.5114049-.514777 1.2340048-.206 1.829zm4.312-5.753c.113.134.219.275.336.406.3678216.4120044.9999956.4478216 1.412.08.4120044-.3678217.4478216-.9999956.08-1.412-.5733505-.64193-1.0965555-1.3269441-1.565-2.049-2.1382885-3.2551091-3.0851277-7.1495152-2.68-11.023.727-7.309 7.768-14.4 15.066-15.163 4.7257085-.51539097 9.4514332.97059742 13.031744 4.09778843 3.5803107 3.12719097 5.6883822 7.61012207 5.813256 12.36221157.226 8.857-7.329 17-16.167 17.421-3.0680592.147153-6.1191543-.5343607-8.833-1.973-.492-.265-.977-.557-1.441-.868-.2201191-.1480258-.4900325-.2025298-.7503436-.1515179-.260311.051012-.4896887.2033598-.6376564.4235179-.2542747.3855188-.2068962.8958766.114 1.228-1.9110891.5893644-3.8750204.9912604-5.864 1.2.9787497-1.3804974 1.6862961-2.9343848 2.085-4.579z"/><path id="Shape" d="m42 22.917c3.1390208-.5305914 5.3171744-3.4204264 4.9626877-6.584177-.3544866-3.1637507-3.118189-5.4998689-6.2967976-5.3225931-3.1786085.1772758-5.6654018 2.806222-5.6658901 5.9897701 0 .5522847.4477153 1 1 1s1-.4477153 1-1c0-2.209139 1.790861-4 4-4s4 1.790861 4 4-1.790861 4-4 4c-.5522847 0-1 .4477153-1 1v2c0 .5522847.4477153 1 1 1s1-.4477153 1-1z"/><circle id="Oval" cx="41" cy="28" r="1"/><path id="Shape" d="m41 35c8.2842712 0 15-6.7157288 15-15s-6.7157288-15-15-15-15 6.7157288-15 15c0 .5522847.4477153 1 1 1s1-.4477153 1-1c.0072899-6.7127678 5.1294943-12.31362807 11.8149147-12.91898589 6.6854205-.60535782 12.7303682 3.98432849 13.9433214 10.58660459 1.2129531 6.6022761-2.8059092 13.0408597-9.2699379 14.8512848-6.4640286 1.8104251-13.2425111-1.6040716-15.6352982-7.8759035-.2023544-.5080213-.7752516-.7592878-1.2860491-.5640472s-.7700395.7645731-.5819509 1.2780472c2.2419432 5.7923116 7.803992 9.619271 14.015 9.643z"/></g></g></svg>