<?xml version="1.0"?>
<svg xmlns="http://www.w3.org/2000/svg" viewBox="0 0 512 512" width="512" height="512"><g id="outline"><path d="M488,152H336V120a8,8,0,0,0-13.239-6.045L304,130.214V24a8,8,0,0,0-8-8H40c-.108,0-.212.012-.319.016s-.2.008-.3.015q-.373.03-.737.093c-.054.009-.109.014-.163.025a7.877,7.877,0,0,0-.922.235c-.021.006-.041.016-.062.022a8.091,8.091,0,0,0-.8.314c-.07.032-.139.066-.208.1-.22.108-.433.225-.641.352-.044.026-.09.046-.134.073-.023.015-.042.033-.065.048a7.866,7.866,0,0,0-.749.545c-.021.017-.039.037-.06.054a8.082,8.082,0,0,0-.6.568c-.066.068-.128.139-.191.21q-.219.244-.418.507c-.054.071-.109.141-.16.214a7.824,7.824,0,0,0-.461.727c-.006.011-.014.022-.02.033a8.119,8.119,0,0,0-.4.849c-.023.056-.041.113-.062.169-.088.231-.165.466-.231.707-.023.083-.044.165-.064.249-.054.225-.1.454-.132.686-.013.084-.028.166-.038.25A8.092,8.092,0,0,0,32,24V424a8,8,0,0,0,4.594,7.239l136,64A8,8,0,0,0,184,488V432H296a8,8,0,0,0,8-8V317.786l18.761,16.259A8,8,0,0,0,336,328V296H488a8,8,0,0,0,8-8V160A8,8,0,0,0,488,152ZM288,32V144.081l-16,13.866V56a8,8,0,0,0-8-8H109.789l-34-16ZM168,475.394,48,418.923V36.606L168,93.077ZM179.406,80.761,143.789,64H256V171.814l-53.239,46.141a8,8,0,0,0,0,12.09L256,276.186V384H184V88A8,8,0,0,0,179.406,80.761ZM288,416H184V400h80a8,8,0,0,0,8-8V290.053l16,13.866ZM480,280H328a8,8,0,0,0-8,8v22.48L220.215,224,320,137.52V160a8,8,0,0,0,8,8H480Z"/><path d="M104,264h24V248H112V200h16V184H104a8,8,0,0,0-8,8v64A8,8,0,0,0,104,264Z"/><rect x="464" y="320" width="16" height="16"/><rect x="432" y="320" width="16" height="16"/><rect x="352" y="320" width="64" height="16"/></g></svg>
